<?xml version="1.0" standalone="no"?>
<!DOCTYPE svg PUBLIC "-//W3C//DTD SVG 20010904//EN"
 "http://www.w3.org/TR/2001/REC-SVG-20010904/DTD/svg10.dtd">
<svg version="1.0" xmlns="http://www.w3.org/2000/svg"
 width="243.000000pt" height="111.000000pt" viewBox="0 0 243.000000 111.000000"
 preserveAspectRatio="xMidYMid meet">

<g transform="translate(0.000000,111.000000) scale(0.100000,-0.100000)"
fill="#F7931E" stroke="none">
<path d="M967 783 c-7 -11 -25 -179 -33 -300 l-6 -101 -44 -11 c-43 -11 -54
-23 -34 -36 17 -11 108 24 112 43 2 9 5 55 7 102 2 84 16 229 27 283 4 20 2
27 -10 27 -8 0 -17 -3 -19 -7z"/>
<path d="M1386 745 c11 -26 15 -56 11 -90 -5 -49 -5 -49 8 -20 21 46 18 86
-10 120 l-25 30 16 -40z"/>
<path d="M760 758 c0 -20 36 -149 50 -183 23 -53 23 -2 1 78 -12 40 -21 83
-21 95 0 13 -6 22 -15 22 -8 0 -15 -6 -15 -12z"/>
<path d="M1749 717 c-40 -31 -50 -34 -90 -30 -38 4 -50 1 -76 -21 -60 -50 -93
-157 -58 -186 13 -11 15 -7 15 27 0 28 9 52 30 81 43 60 72 76 123 69 36 -5
47 -2 75 23 23 19 33 35 30 50 -3 21 -5 21 -49 -13z"/>
<path d="M1946 734 c-8 -21 -3 -26 17 -18 24 9 30 34 8 34 -10 0 -22 -7 -25
-16z"/>
<path d="M360 688 c1 -31 1 -32 15 -14 19 25 19 46 0 46 -10 0 -15 -10 -15
-32z"/>
<path d="M501 665 l-53 -55 76 -117 75 -116 -32 -23 c-66 -47 -67 -48 -58 -64
8 -12 19 -8 65 24 l56 38 -27 47 c-15 25 -49 77 -75 115 l-49 70 61 61 c33 33
60 64 60 68 0 4 -10 7 -23 7 -15 0 -42 -20 -76 -55z"/>
<path d="M1188 693 c-21 -5 -66 -71 -83 -120 -15 -43 -10 -89 11 -97 10 -4 14
4 14 32 1 70 57 145 125 167 16 5 17 8 5 15 -15 10 -42 11 -72 3z"/>
<path d="M2082 665 c-79 -38 -82 -42 -58 -116 14 -41 40 -153 41 -173 0 -5
-26 -17 -58 -25 -32 -9 -58 -20 -58 -24 -1 -27 10 -29 71 -10 76 22 74 14 35
177 -13 55 -22 102 -20 105 2 4 40 22 84 41 64 26 78 36 70 47 -16 19 -27 17
-107 -22z"/>
<path d="M1365 553 c-12 -32 -41 -71 -85 -115 -57 -57 -72 -67 -113 -73 -26
-4 -61 -5 -77 -3 -27 4 -29 3 -16 -10 22 -22 104 -26 149 -8 86 37 164 137
166 214 0 23 -1 42 -3 42 -2 0 -11 -21 -21 -47z"/>
<path d="M1861 497 c-27 -121 -30 -127 -61 -127 -39 0 -60 -9 -60 -27 0 -12
10 -14 53 -8 28 4 55 10 58 14 14 15 48 159 42 179 -9 36 -19 26 -32 -31z"/>
<path d="M375 415 l6 -101 -35 -17 c-35 -16 -43 -27 -30 -39 3 -4 28 3 55 14
45 19 49 24 45 47 -3 14 -8 53 -12 86 -4 33 -13 71 -21 85 -12 22 -13 14 -8
-75z"/>
<path d="M732 406 l4 -65 -38 -14 c-22 -9 -38 -22 -38 -31 0 -21 9 -20 65 4
l48 20 -7 61 c-8 70 -14 89 -28 89 -6 0 -9 -25 -6 -64z"/>
<path d="M1681 448 c-2 -51 -120 -94 -191 -69 -28 9 -31 9 -20 -4 34 -41 131
-42 202 -3 42 24 43 29 23 73 l-13 30 -1 -27z"/>
</g>
</svg>
